<svg xmlns="http://www.w3.org/2000/svg" width="69.402" height="69.401" viewBox="0 0 69.402 69.401">
  <g id="trolley" transform="translate(-998.475 -187.035)">
    <g id="Group_2" data-name="Group 2" transform="translate(1067.877 256.436) rotate(180)">
      <g id="Layer_1" data-name="Layer 1">
        <path id="Path_2" data-name="Path 2" d="M8.262,16.524a8.262,8.262,0,1,1,8.262-8.262A8.262,8.262,0,0,1,8.262,16.524Zm0-13.219a4.957,4.957,0,1,0,4.957,4.957A4.957,4.957,0,0,0,8.262,3.3Z" transform="translate(9.915)" fill="#1a1a1a"/>
        <path id="Path_3" data-name="Path 3" d="M8.262,16.524a8.262,8.262,0,1,1,8.262-8.262A8.262,8.262,0,0,1,8.262,16.524Zm0-13.219a4.957,4.957,0,1,0,4.957,4.957A4.957,4.957,0,0,0,8.262,3.3Z" transform="translate(36.353)" fill="#1a1a1a"/>
        <path id="Path_4" data-name="Path 4" d="M67.749,49.572H54.53a1.652,1.652,0,0,1-1.652-1.652V36.353H1.653A1.652,1.652,0,0,1,.033,34.37L6.643,1.322A1.652,1.652,0,0,1,8.262,0H54.53a1.652,1.652,0,0,1,1.652,1.652V46.268H67.749a1.652,1.652,0,0,1,0,3.3ZM52.878,3.3H9.617L3.669,33.048H52.878Z" transform="translate(0 19.829)" fill="#1a1a1a"/>
      </g>
    </g>
  </g>
</svg>
