<svg id="Illus_XSml_96px_-_Something_went_wrong" data-name="Illus XSml 96px  - Something went wrong" xmlns="http://www.w3.org/2000/svg" width="96" height="96" viewBox="0 0 96 96">
  <g id="invisible_box" data-name="invisible box">
    <rect id="Container_4px_Padding" data-name="Container 4px Padding" width="96" height="96" fill="none"/>
  </g>
  <g id="icons_Q2" data-name="icons Q2" transform="translate(4 8)">
    <g id="Group_34339" data-name="Group 34339">
      <path id="Path_157266" data-name="Path 157266" d="M46.032,14.964,79.28,75.051h-66.3L46.032,14.964M2.569,77.054a4.006,4.006,0,0,0,3.4,6.009H86.09a4.006,4.006,0,0,0,3.4-6.009L49.437,4.949a4.006,4.006,0,0,0-6.81,0Z" transform="translate(-2.032 -3.054)" fill="#b3344b"/>
      <path id="Path_157267" data-name="Path 157267" d="M22,21.006V39.032a4.006,4.006,0,1,0,8.012,0V21.006a4.006,4.006,0,1,0-8.012,0Z" transform="translate(17.994 10.933)" fill="#b3344b"/>
      <circle id="Ellipse_3482" data-name="Ellipse 3482" cx="4.006" cy="4.006" r="4.006" transform="translate(39.994 57.977)" fill="#b3344b"/>
    </g>
  </g>
</svg>
